# xmcd
#
# Track frame offsets: 
#        150
#        29041
#        55822
#        85339
#        98859
#        119473
#        133792
#        149473
#        175303
#        189912
#        202720
#        215545
#        229303
#
# Disc length: 3200 seconds
#
# Revision: 3
# Processed by: cddbd v1.5.2PL0 Copyright (c) Steve Scherf et al.
# Submitted via: ExactAudioCopy v1.0b3
#
DISCID=be0c7e0d
DTITLE=Gloria Gaynor - Experience Gloria Gaynor
DYEAR=1975
DGENRE=Soul
TTITLE0=Casanova Brown
TTITLE1=(if You Want It) Do It Yourself
TTITLE2=How High The Moon
TTITLE3=The Prettiest Face I've Ever Seen
TTITLE4=What'll I Do
TTITLE5=Tell Me How
TTITLE6=I'm Still Yours
TTITLE7=Walk On By
TTITLE8=Casanova Brown (Promotional Single Version)
TTITLE9=(If You Want It) Do It Yourself (Single Version)
TTITLE10=How High The Moon (Single Version)
TTITLE11=Walk On By (Single Version)
TTITLE12=My Man's Gone
EXTD=YEAR: 1975
EXTT0=
EXTT1=
EXTT2=
EXTT3=
EXTT4=
EXTT5=
EXTT6=
EXTT7=
EXTT8=
EXTT9=
EXTT10=
EXTT11=
EXTT12=
PLAYORDER=
